<svg id="Layer_1" enable-background="new 0 0 512 512" height="512" viewBox="0 0 512 512" width="512" xmlns="http://www.w3.org/2000/svg"><path d="m346 482-90 7-90-7c16.54 0 30-13.46 30-30v-45h120v45c0 16.54 13.46 30 30 30z" fill="#465a61"/><path d="m346 482-90 7v-82h60v45c0 16.54 13.46 30 30 30z" fill="#3b4a51"/><path d="m121 482h270v30h-270z" fill="#596c76"/><path d="m256 482h135v30h-135z" fill="#465a61"/><path d="m0 32v390h512v-390z" fill="#596c76"/><path d="m256 32h256v390h-256z" fill="#465a61"/><path d="m30 62h452v330h-452z" fill="#f3eee9"/><path d="m256 62h226v330h-226z" fill="#e9dfda"/><path d="m401 257-145 108.75-145-108.75 66-49.5h158z" fill="#fdbf00"/><path d="m401 257-145 108.75v-158.25h79z" fill="#ff9100"/><path d="m401 182-145 108.75-145-108.75 66-49.5h158z" fill="#ff637b"/><path d="m401 182-145 108.75v-158.25h79z" fill="#e63950"/><path d="m256 0-145.15 106.89 145.15 108.86 145.15-108.86z" fill="#76e2f8"/><path d="m401.15 106.89-145.15 108.86v-215.75z" fill="#4bb9ec"/></svg>